# xmcd
#
# Track frame offsets:
#       182
#       13485
#       29522
#       43275
#       58435
#       74157
#       88297
#       101890
#       119595
#       133180
#       149087
#       162982
#       177932
#       190787
#
# Disc length: 2708 seconds
#
# Revision: 16
# Processed by: cddbd v1.5.2PL0 Copyright (c) Steve Scherf et al.
# Submitted via: WhereIsIt 2014.220
#
DISCID=ef0a920e
DTITLE=Truck Stop - Die groﬂen Erfolge
DYEAR=1992
DGENRE=Country
TTITLE0=Arizona,  Arizona
TTITLE1=Ich m√∂cht' so gern Dave Dudley h√∂r'n
TTITLE2=Hillybilly Country Lilly
TTITLE3=Mein Opa, das bin ich
TTITLE4=Ich steh' auf Jeans und country music
TTITLE5=Das gibt's doch nur in Dallas
TTITLE6=Take it easy, altes Haus
TTITLE7=Wenn es Nacht wird in Old Tucson
TTITLE8=Tausend Meilen
TTITLE9=Geiger in der Country Band
TTITLE10=Asphaltfieber
TTITLE11=Black Jack
TTITLE12=Ich und mein Diesel
TTITLE13=Der wilde, wilde Westen
EXTD=
EXTT0=
EXTT1=
EXTT2=
EXTT3=
EXTT4=
EXTT5=
EXTT6=
EXTT7=
EXTT8=
EXTT9=
EXTT10=
EXTT11=
EXTT12=
EXTT13=
PLAYORDER=
